<svg xmlns="http://www.w3.org/2000/svg" viewBox="0 0 169.21 169.24">
	<g>
		<path fill="#3e8e17" d="M84.73,0a84.62,84.62,0,1,0,84.48,84.77C169.27,35.36,129.13-.1,84.73,0Zm7.78,149.62a65.5,65.5,0,1,1,57.07-72.83A65.45,65.45,0,0,1,92.51,149.62Z"/>
		<path fill="#3e8e17" d="M94.74,42.48c0-4.25-1.75-7.62-5.67-9.53a9.69,9.69,0,0,0-11,1.3,10.06,10.06,0,0,0-3.69,8.33c0,10.2.37,31.52.37,31.52s-23,.36-32.86.4a9.71,9.71,0,0,0-9,5.67,9.53,9.53,0,0,0,.71,10.16c2.32,3.52,5.76,4.54,9.68,4.55,9.42,0,31.18.11,31.18.11s0,22.23,0,31.89a9.84,9.84,0,0,0,3.84,8.27A9.68,9.68,0,0,0,89,136.35c3.88-1.89,5.7-5.24,5.72-9.51,0-9.58,0-31.86,0-31.86s21.51-.1,30.75-.09c3.07,0,6-.44,8.38-2.59a10.18,10.18,0,0,0,2.81-11.36,9.86,9.86,0,0,0-9.48-6.44c-5.9,0-20-.16-32.53-.27C94.62,74.23,94.78,52.14,94.74,42.48Z"/>
	</g>
</svg>