<svg xmlns="http://www.w3.org/2000/svg" viewBox="0 0 75.6 149.22">
	<g>
		<path fill="#3e8e17" d="M12.46,149.22c1.73.07,4.36-1.46,6.5-4C31.28,130.43,67,87.6,72.5,81c4.19-5,4.14-10.18-.18-15.06-.67-.75-1.37-1.46-2-2.21Q44.24,33.74,18.17,3.8C14.26-.69,8-1.26,3.66,2.39-.8,6.17-1.26,12.46,2.72,17.08c6.51,7.57,38.36,44.06,47.75,54.74,1.22,1.38,1.25,2.36.05,3.79C40.36,87.72,8.58,125.8,2.91,132.77a9.54,9.54,0,0,0-1,11C3.67,147.32,6.71,149.11,12.46,149.22Z"/>
		<path fill="#3e8e17" d="M12.46,149.22c-5.75-.11-8.79-1.9-10.6-5.46a9.54,9.54,0,0,1,1.05-11c5.67-7,11.48-13.83,17.23-20.74Q35.32,93.81,50.52,75.61c1.2-1.43,1.17-2.41-.05-3.79q-14.08-16-28.09-32.14c-6.56-7.53-13.15-15-19.66-22.6-4-4.62-3.52-10.91.94-14.69C8-1.26,14.26-.69,18.17,3.8Q44.26,33.72,70.29,63.69c.66.75,1.36,1.46,2,2.21,4.32,4.88,4.37,10,.18,15.06-5.54,6.64-11,13.32-16.59,20Q37.45,123.06,19,145.19C16.82,147.76,14.19,149.29,12.46,149.22Z"/>
	</g>
</svg>