<svg xmlns="http://www.w3.org/2000/svg" viewBox="0 0 75.6 149.22">
	<g>
		<path fill="#3e8e17" d="M63.14,0c-1.73-.07-4.36,1.46-6.5,4C44.32,18.79,8.64,61.62,3.1,68.26c-4.19,5-4.14,10.18.18,15.06.67.75,1.37,1.46,2,2.21q26.06,30,52.12,59.89c3.91,4.49,10.21,5.06,14.51,1.41,4.47-3.78,4.92-10.07,1-14.69-6.52-7.57-38.36-44.06-47.76-54.74C23.92,76,23.88,75,25.08,73.61,35.24,61.5,67,23.42,72.69,16.45a9.54,9.54,0,0,0,1-11C71.93,1.9,68.89.11,63.14,0Z"/>
		<path fill="#3e8e17" d="M63.14,0c5.75.11,8.79,1.9,10.6,5.46a9.54,9.54,0,0,1-1,11c-5.67,7-11.47,13.83-17.23,20.74Q40.3,55.42,25.08,73.61c-1.2,1.43-1.16,2.41.05,3.79q14.1,16,28.09,32.14c6.56,7.53,13.15,15,19.67,22.6,4,4.62,3.52,10.91-1,14.69-4.3,3.65-10.6,3.08-14.51-1.41Q31.35,115.5,5.31,85.53c-.66-.75-1.36-1.46-2-2.21-4.32-4.88-4.37-10-.18-15.06,5.54-6.64,11.05-13.32,16.59-20Q38.16,26.16,56.64,4C58.78,1.46,61.41-.07,63.14,0Z"/>
	</g>
</svg>