<svg xmlns="http://www.w3.org/2000/svg" viewBox="0 0 169.39 169.39"><defs><style>.cls-1{fill:#3e8a28;}</style></defs><g id="Layer_2" data-name="Layer 2"><g id="Layer_1-2" data-name="Layer 1"><path class="cls-1" d="M84.63,169.39c3.4-.25,6.82-.35,10.19-.78,25.1-3.18,45-15.21,59.49-35.85,12.81-18.25,17.33-38.73,14.05-60.7-1-6.67-3.3-13.19-5.43-19.63A9.08,9.08,0,0,0,153,46.54c-6.83,1.28-10.07,7.1-7.52,13.71a65.53,65.53,0,0,1-74.95,88.34c-31.39-6.93-53.62-36.19-51.07-68.68C21,61.05,29,45.55,43.64,33.75c16.41-13.26,35.2-17.34,55.82-12.89,6.1,1.31,11-1.6,12.3-7.46,1.17-5.12-2.26-9.89-8.06-11.22a84.87,84.87,0,0,0-36.38-.41c-44.52,9.1-74.14,53.05-66,97.87A84.87,84.87,0,0,0,84.63,169.39Zm-7.24-69.26C76.5,99,64,82.46,58.24,75.12a9.93,9.93,0,0,0-14.16-2c-4.27,3.43-4.92,9.45-1.42,14.07q13.47,17.81,27,35.55c5.26,6.86,13,6.49,17.57-.87,12-19.45,48.89-79.68,55.41-90.3,1.8-2.94,2.38-6,1-9.27a9.2,9.2,0,0,0-7.85-6.08c-4.43-.53-7.74,1.27-10.06,5.05C112.53,42.93,80.38,95.28,77.39,100.13Z"/><path class="cls-1" d="M84.63,169.39A84.87,84.87,0,0,1,1.36,99.64c-8.18-44.82,21.44-88.77,66-97.87a84.87,84.87,0,0,1,36.38.41c5.8,1.33,9.23,6.1,8.06,11.22-1.34,5.86-6.2,8.77-12.3,7.46-20.62-4.45-39.41-.37-55.82,12.89C29,45.55,21,61.05,19.47,79.91c-2.55,32.49,19.68,61.75,51.07,68.68a65.53,65.53,0,0,0,75-88.34c-2.55-6.61.69-12.43,7.52-13.71a9.08,9.08,0,0,1,9.92,5.89c2.13,6.44,4.43,13,5.43,19.63,3.28,22-1.24,42.45-14.05,60.7-14.48,20.64-34.39,32.67-59.49,35.85C91.45,169,88,169.14,84.63,169.39Z"/><path class="cls-1" d="M77.39,100.13c3-4.85,35.14-57.2,48.39-78.81,2.32-3.78,5.63-5.58,10.06-5.05a9.2,9.2,0,0,1,7.85,6.08c1.34,3.28.76,6.33-1,9.27-6.52,10.62-43.42,70.85-55.41,90.3-4.54,7.36-12.31,7.73-17.57.87q-13.56-17.73-27-35.55c-3.5-4.62-2.85-10.64,1.42-14.07a9.93,9.93,0,0,1,14.16,2C64,82.46,76.5,99,77.39,100.13Z"/></g></g></svg>