<svg xmlns="http://www.w3.org/2000/svg" viewBox="0 0 169.21 169.24">
	<g>
		<path fill="#C22414" d="M84.73,0a84.62,84.62,0,1,0,84.48,84.77C169.27,35.36,129.13-.1,84.73,0Zm7.78,149.62a65.5,65.5,0,1,1,57.07-72.83A65.45,65.45,0,0,1,92.51,149.62Z"/>
		<path fill="#C22414" d="M121.58,62c3-3,4.15-6.63,2.73-10.75a9.68,9.68,0,0,0-8.69-6.85,10.08,10.08,0,0,0-8.51,3.28c-7.19,7.24-22,22.55-22,22.55s-16.53-16-23.51-23a9.71,9.71,0,0,0-10.39-2.37A9.55,9.55,0,0,0,44.5,52.6c-.85,4.13.86,7.28,3.63,10.06,6.64,6.67,22,22.12,22,22.12S54.34,100.46,47.51,107.3a9.88,9.88,0,0,0-3.14,8.56,9.72,9.72,0,0,0,6.79,8.47c4.08,1.41,7.73.33,10.76-2.68,6.81-6.74,22.5-22.56,22.5-22.56s15.27,15.13,21.81,21.68c2.16,2.17,4.54,3.92,7.75,4.09a10.17,10.17,0,0,0,10-6,9.85,9.85,0,0,0-2.15-11.26c-4.15-4.19-14-14.29-22.81-23.19C99,84.37,114.77,68.86,121.58,62Z"/>
	</g>
</svg>